<svg xmlns="http://www.w3.org/2000/svg" viewBox="0 0 1000 1235"
     width="1000" height="1235"
     role="img" aria-label="QR code linking to https://bsniddy.github.io">
  <style>
    .mono { font-family: ui-monospace, "SF Mono", Menlo, Consolas, monospace; }
    .disp { font-family: "Helvetica Neue", Inter, Helvetica, Arial, sans-serif; font-weight: 800; }
    .code { shape-rendering: crispEdges; }
  </style>

  <rect width="1000" height="1235" rx="22" fill="#07090C"/>
  <path d="M 68 34 H 34 V 68" stroke="#2A343F" stroke-width="2" fill="none"/>
  <path d="M 932 34 H 966 V 68" stroke="#2A343F" stroke-width="2" fill="none"/>
  <path d="M 68 1201 H 34 V 1167" stroke="#2A343F" stroke-width="2" fill="none"/>
  <path d="M 932 1201 H 966 V 1167" stroke="#2A343F" stroke-width="2" fill="none"/>

  <!-- header -->
  <circle cx="125.0" cy="108" r="5" fill="#FF7A1A"/>
  <text class="mono" x="142.0" y="114" font-size="21" letter-spacing="4.2" fill="#FF7A1A">SCAN // PORTFOLIO</text>
  <text class="disp" x="120.0" y="188" font-size="54" letter-spacing="-1.6" fill="#E9EDF2">BRODY SNYDER</text>
  <rect x="120.0" y="214" width="760" height="1" fill="#2A343F"/>

  <!-- code tile: white plate, then the code (its own 4-module quiet zone included) -->
  <rect x="94.0" y="224" width="812" height="812" rx="14" fill="#F7F7F4"/>
  <g class="code" transform="translate(120.0, 250)">
    <rect width="760.0" height="760.0" fill="#F7F7F4"/>
<rect x="74.14634146341463" y="74.14634146341463" width="129.7560975609756" height="18.536585365853657" fill="#07090C"/>
<rect x="222.4390243902439" y="74.14634146341463" width="55.609756097560975" height="18.536585365853657" fill="#07090C"/>
<rect x="315.1219512195122" y="74.14634146341463" width="18.536585365853657" height="18.536585365853657" fill="#07090C"/>
<rect x="352.1951219512195" y="74.14634146341463" width="55.609756097560975" height="18.536585365853657" fill="#07090C"/>
<rect x="500.48780487804873" y="74.14634146341463" width="37.073170731707314" height="18.536585365853657" fill="#07090C"/>
<rect x="556.0975609756097" y="74.14634146341463" width="129.7560975609756" height="18.536585365853657" fill="#07090C"/>
<rect x="74.14634146341463" y="92.68292682926828" width="18.536585365853657" height="18.536585365853657" fill="#07090C"/>
<rect x="185.36585365853657" y="92.68292682926828" width="18.536585365853657" height="18.536585365853657" fill="#07090C"/>
<rect x="222.4390243902439" y="92.68292682926828" width="18.536585365853657" height="18.536585365853657" fill="#07090C"/>
<rect x="259.5121951219512" y="92.68292682926828" width="18.536585365853657" height="18.536585365853657" fill="#07090C"/>
<rect x="296.5853658536585" y="92.68292682926828" width="18.536585365853657" height="18.536585365853657" fill="#07090C"/>
<rect x="370.73170731707313" y="92.68292682926828" width="37.073170731707314" height="18.536585365853657" fill="#07090C"/>
<rect x="463.4146341463414" y="92.68292682926828" width="18.536585365853657" height="18.536585365853657" fill="#07090C"/>
<rect x="519.0243902439024" y="92.68292682926828" width="18.536585365853657" height="18.536585365853657" fill="#07090C"/>
<rect x="556.0975609756097" y="92.68292682926828" width="18.536585365853657" height="18.536585365853657" fill="#07090C"/>
<rect x="667.3170731707316" y="92.68292682926828" width="18.536585365853657" height="18.536585365853657" fill="#07090C"/>
<rect x="74.14634146341463" y="111.21951219512195" width="18.536585365853657" height="18.536585365853657" fill="#07090C"/>
<rect x="111.21951219512195" y="111.21951219512195" width="55.609756097560975" height="18.536585365853657" fill="#07090C"/>
<rect x="185.36585365853657" y="111.21951219512195" width="18.536585365853657" height="18.536585365853657" fill="#07090C"/>
<rect x="222.4390243902439" y="111.21951219512195" width="18.536585365853657" height="18.536585365853657" fill="#07090C"/>
<rect x="259.5121951219512" y="111.21951219512195" width="18.536585365853657" height="18.536585365853657" fill="#07090C"/>
<rect x="296.5853658536585" y="111.21951219512195" width="111.21951219512195" height="18.536585365853657" fill="#07090C"/>
<rect x="463.4146341463414" y="111.21951219512195" width="74.14634146341463" height="18.536585365853657" fill="#07090C"/>
<rect x="556.0975609756097" y="111.21951219512195" width="18.536585365853657" height="18.536585365853657" fill="#07090C"/>
<rect x="593.170731707317" y="111.21951219512195" width="55.609756097560975" height="18.536585365853657" fill="#07090C"/>
<rect x="667.3170731707316" y="111.21951219512195" width="18.536585365853657" height="18.536585365853657" fill="#07090C"/>
<rect x="74.14634146341463" y="129.7560975609756" width="18.536585365853657" height="18.536585365853657" fill="#07090C"/>
<rect x="111.21951219512195" y="129.7560975609756" width="55.609756097560975" height="18.536585365853657" fill="#07090C"/>
<rect x="185.36585365853657" y="129.7560975609756" width="18.536585365853657" height="18.536585365853657" fill="#07090C"/>
<rect x="296.5853658536585" y="129.7560975609756" width="74.14634146341463" height="18.536585365853657" fill="#07090C"/>
<rect x="389.2682926829268" y="129.7560975609756" width="55.609756097560975" height="18.536585365853657" fill="#07090C"/>
<rect x="500.48780487804873" y="129.7560975609756" width="18.536585365853657" height="18.536585365853657" fill="#07090C"/>
<rect x="556.0975609756097" y="129.7560975609756" width="18.536585365853657" height="18.536585365853657" fill="#07090C"/>
<rect x="593.170731707317" y="129.7560975609756" width="55.609756097560975" height="18.536585365853657" fill="#07090C"/>
<rect x="667.3170731707316" y="129.7560975609756" width="18.536585365853657" height="18.536585365853657" fill="#07090C"/>
<rect x="74.14634146341463" y="148.29268292682926" width="18.536585365853657" height="18.536585365853657" fill="#07090C"/>
<rect x="111.21951219512195" y="148.29268292682926" width="55.609756097560975" height="18.536585365853657" fill="#07090C"/>
<rect x="185.36585365853657" y="148.29268292682926" width="18.536585365853657" height="18.536585365853657" fill="#07090C"/>
<rect x="240.97560975609755" y="148.29268292682926" width="18.536585365853657" height="18.536585365853657" fill="#07090C"/>
<rect x="278.04878048780483" y="148.29268292682926" width="55.609756097560975" height="18.536585365853657" fill="#07090C"/>
<rect x="370.73170731707313" y="148.29268292682926" width="37.073170731707314" height="18.536585365853657" fill="#07090C"/>
<rect x="426.3414634146341" y="148.29268292682926" width="18.536585365853657" height="18.536585365853657" fill="#07090C"/>
<rect x="519.0243902439024" y="148.29268292682926" width="18.536585365853657" height="18.536585365853657" fill="#07090C"/>
<rect x="556.0975609756097" y="148.29268292682926" width="18.536585365853657" height="18.536585365853657" fill="#07090C"/>
<rect x="593.170731707317" y="148.29268292682926" width="55.609756097560975" height="18.536585365853657" fill="#07090C"/>
<rect x="667.3170731707316" y="148.29268292682926" width="18.536585365853657" height="18.536585365853657" fill="#07090C"/>
<rect x="74.14634146341463" y="166.8292682926829" width="18.536585365853657" height="18.536585365853657" fill="#07090C"/>
<rect x="185.36585365853657" y="166.8292682926829" width="18.536585365853657" height="18.536585365853657" fill="#07090C"/>
<rect x="222.4390243902439" y="166.8292682926829" width="18.536585365853657" height="18.536585365853657" fill="#07090C"/>
<rect x="259.5121951219512" y="166.8292682926829" width="18.536585365853657" height="18.536585365853657" fill="#07090C"/>
<rect x="296.5853658536585" y="166.8292682926829" width="18.536585365853657" height="18.536585365853657" fill="#07090C"/>
<rect x="333.6585365853658" y="166.8292682926829" width="18.536585365853657" height="18.536585365853657" fill="#07090C"/>
<rect x="370.73170731707313" y="166.8292682926829" width="74.14634146341463" height="18.536585365853657" fill="#07090C"/>
<rect x="463.4146341463414" y="166.8292682926829" width="18.536585365853657" height="18.536585365853657" fill="#07090C"/>
<rect x="556.0975609756097" y="166.8292682926829" width="18.536585365853657" height="18.536585365853657" fill="#07090C"/>
<rect x="667.3170731707316" y="166.8292682926829" width="18.536585365853657" height="18.536585365853657" fill="#07090C"/>
<rect x="74.14634146341463" y="185.36585365853657" width="129.7560975609756" height="18.536585365853657" fill="#07090C"/>
<rect x="222.4390243902439" y="185.36585365853657" width="18.536585365853657" height="18.536585365853657" fill="#07090C"/>
<rect x="259.5121951219512" y="185.36585365853657" width="18.536585365853657" height="18.536585365853657" fill="#07090C"/>
<rect x="296.5853658536585" y="185.36585365853657" width="18.536585365853657" height="18.536585365853657" fill="#07090C"/>
<rect x="333.6585365853658" y="185.36585365853657" width="18.536585365853657" height="18.536585365853657" fill="#07090C"/>
<rect x="370.73170731707313" y="185.36585365853657" width="18.536585365853657" height="18.536585365853657" fill="#07090C"/>
<rect x="407.80487804878044" y="185.36585365853657" width="18.536585365853657" height="18.536585365853657" fill="#07090C"/>
<rect x="444.8780487804878" y="185.36585365853657" width="18.536585365853657" height="18.536585365853657" fill="#07090C"/>
<rect x="481.9512195121951" y="185.36585365853657" width="18.536585365853657" height="18.536585365853657" fill="#07090C"/>
<rect x="519.0243902439024" y="185.36585365853657" width="18.536585365853657" height="18.536585365853657" fill="#07090C"/>
<rect x="556.0975609756097" y="185.36585365853657" width="129.7560975609756" height="18.536585365853657" fill="#07090C"/>
<rect x="222.4390243902439" y="203.90243902439022" width="18.536585365853657" height="18.536585365853657" fill="#07090C"/>
<rect x="259.5121951219512" y="203.90243902439022" width="37.073170731707314" height="18.536585365853657" fill="#07090C"/>
<rect x="333.6585365853658" y="203.90243902439022" width="37.073170731707314" height="18.536585365853657" fill="#07090C"/>
<rect x="389.2682926829268" y="203.90243902439022" width="37.073170731707314" height="18.536585365853657" fill="#07090C"/>
<rect x="463.4146341463414" y="203.90243902439022" width="37.073170731707314" height="18.536585365853657" fill="#07090C"/>
<rect x="519.0243902439024" y="203.90243902439022" width="18.536585365853657" height="18.536585365853657" fill="#07090C"/>
<rect x="111.21951219512195" y="222.4390243902439" width="55.609756097560975" height="18.536585365853657" fill="#07090C"/>
<rect x="185.36585365853657" y="222.4390243902439" width="18.536585365853657" height="18.536585365853657" fill="#07090C"/>
<rect x="222.4390243902439" y="222.4390243902439" width="18.536585365853657" height="18.536585365853657" fill="#07090C"/>
<rect x="296.5853658536585" y="222.4390243902439" width="18.536585365853657" height="18.536585365853657" fill="#07090C"/>
<rect x="389.2682926829268" y="222.4390243902439" width="18.536585365853657" height="18.536585365853657" fill="#07090C"/>
<rect x="444.8780487804878" y="222.4390243902439" width="18.536585365853657" height="18.536585365853657" fill="#07090C"/>
<rect x="481.9512195121951" y="222.4390243902439" width="18.536585365853657" height="18.536585365853657" fill="#07090C"/>
<rect x="519.0243902439024" y="222.4390243902439" width="74.14634146341463" height="18.536585365853657" fill="#07090C"/>
<rect x="630.2439024390244" y="222.4390243902439" width="55.609756097560975" height="18.536585365853657" fill="#07090C"/>
<rect x="129.7560975609756" y="240.97560975609755" width="18.536585365853657" height="18.536585365853657" fill="#07090C"/>
<rect x="166.8292682926829" y="240.97560975609755" width="18.536585365853657" height="18.536585365853657" fill="#07090C"/>
<rect x="278.04878048780483" y="240.97560975609755" width="74.14634146341463" height="18.536585365853657" fill="#07090C"/>
<rect x="370.73170731707313" y="240.97560975609755" width="55.609756097560975" height="18.536585365853657" fill="#07090C"/>
<rect x="444.8780487804878" y="240.97560975609755" width="18.536585365853657" height="18.536585365853657" fill="#07090C"/>
<rect x="500.48780487804873" y="240.97560975609755" width="18.536585365853657" height="18.536585365853657" fill="#07090C"/>
<rect x="537.560975609756" y="240.97560975609755" width="37.073170731707314" height="18.536585365853657" fill="#07090C"/>
<rect x="648.780487804878" y="240.97560975609755" width="37.073170731707314" height="18.536585365853657" fill="#07090C"/>
<rect x="111.21951219512195" y="259.5121951219512" width="37.073170731707314" height="18.536585365853657" fill="#07090C"/>
<rect x="185.36585365853657" y="259.5121951219512" width="18.536585365853657" height="18.536585365853657" fill="#07090C"/>
<rect x="222.4390243902439" y="259.5121951219512" width="55.609756097560975" height="18.536585365853657" fill="#07090C"/>
<rect x="333.6585365853658" y="259.5121951219512" width="18.536585365853657" height="18.536585365853657" fill="#07090C"/>
<rect x="426.3414634146341" y="259.5121951219512" width="18.536585365853657" height="18.536585365853657" fill="#07090C"/>
<rect x="481.9512195121951" y="259.5121951219512" width="18.536585365853657" height="18.536585365853657" fill="#07090C"/>
<rect x="519.0243902439024" y="259.5121951219512" width="18.536585365853657" height="18.536585365853657" fill="#07090C"/>
<rect x="556.0975609756097" y="259.5121951219512" width="37.073170731707314" height="18.536585365853657" fill="#07090C"/>
<rect x="611.7073170731707" y="259.5121951219512" width="55.609756097560975" height="18.536585365853657" fill="#07090C"/>
<rect x="74.14634146341463" y="278.04878048780483" width="18.536585365853657" height="18.536585365853657" fill="#07090C"/>
<rect x="111.21951219512195" y="278.04878048780483" width="37.073170731707314" height="18.536585365853657" fill="#07090C"/>
<rect x="166.8292682926829" y="278.04878048780483" width="18.536585365853657" height="18.536585365853657" fill="#07090C"/>
<rect x="203.90243902439022" y="278.04878048780483" width="74.14634146341463" height="18.536585365853657" fill="#07090C"/>
<rect x="296.5853658536585" y="278.04878048780483" width="18.536585365853657" height="18.536585365853657" fill="#07090C"/>
<rect x="333.6585365853658" y="278.04878048780483" width="18.536585365853657" height="18.536585365853657" fill="#07090C"/>
<rect x="389.2682926829268" y="278.04878048780483" width="74.14634146341463" height="18.536585365853657" fill="#07090C"/>
<rect x="500.48780487804873" y="278.04878048780483" width="18.536585365853657" height="18.536585365853657" fill="#07090C"/>
<rect x="537.560975609756" y="278.04878048780483" width="18.536585365853657" height="18.536585365853657" fill="#07090C"/>
<rect x="611.7073170731707" y="278.04878048780483" width="37.073170731707314" height="18.536585365853657" fill="#07090C"/>
<rect x="667.3170731707316" y="278.04878048780483" width="18.536585365853657" height="18.536585365853657" fill="#07090C"/>
<rect x="74.14634146341463" y="296.5853658536585" width="37.073170731707314" height="18.536585365853657" fill="#07090C"/>
<rect x="185.36585365853657" y="296.5853658536585" width="55.609756097560975" height="18.536585365853657" fill="#07090C"/>
<rect x="259.5121951219512" y="296.5853658536585" width="18.536585365853657" height="18.536585365853657" fill="#07090C"/>
<rect x="315.1219512195122" y="296.5853658536585" width="37.073170731707314" height="18.536585365853657" fill="#07090C"/>
<rect x="389.2682926829268" y="296.5853658536585" width="37.073170731707314" height="18.536585365853657" fill="#07090C"/>
<rect x="444.8780487804878" y="296.5853658536585" width="74.14634146341463" height="18.536585365853657" fill="#07090C"/>
<rect x="537.560975609756" y="296.5853658536585" width="18.536585365853657" height="18.536585365853657" fill="#07090C"/>
<rect x="574.6341463414634" y="296.5853658536585" width="18.536585365853657" height="18.536585365853657" fill="#07090C"/>
<rect x="611.7073170731707" y="296.5853658536585" width="18.536585365853657" height="18.536585365853657" fill="#07090C"/>
<rect x="74.14634146341463" y="315.1219512195122" width="37.073170731707314" height="18.536585365853657" fill="#07090C"/>
<rect x="129.7560975609756" y="315.1219512195122" width="37.073170731707314" height="18.536585365853657" fill="#07090C"/>
<rect x="203.90243902439022" y="315.1219512195122" width="37.073170731707314" height="18.536585365853657" fill="#07090C"/>
<rect x="259.5121951219512" y="315.1219512195122" width="18.536585365853657" height="18.536585365853657" fill="#07090C"/>
<rect x="333.6585365853658" y="315.1219512195122" width="37.073170731707314" height="18.536585365853657" fill="#07090C"/>
<rect x="389.2682926829268" y="315.1219512195122" width="55.609756097560975" height="18.536585365853657" fill="#07090C"/>
<rect x="500.48780487804873" y="315.1219512195122" width="18.536585365853657" height="18.536585365853657" fill="#07090C"/>
<rect x="556.0975609756097" y="315.1219512195122" width="18.536585365853657" height="18.536585365853657" fill="#07090C"/>
<rect x="593.170731707317" y="315.1219512195122" width="37.073170731707314" height="18.536585365853657" fill="#07090C"/>
<rect x="667.3170731707316" y="315.1219512195122" width="18.536585365853657" height="18.536585365853657" fill="#07090C"/>
<rect x="74.14634146341463" y="333.6585365853658" width="18.536585365853657" height="18.536585365853657" fill="#07090C"/>
<rect x="166.8292682926829" y="333.6585365853658" width="37.073170731707314" height="18.536585365853657" fill="#07090C"/>
<rect x="222.4390243902439" y="333.6585365853658" width="18.536585365853657" height="18.536585365853657" fill="#07090C"/>
<rect x="259.5121951219512" y="333.6585365853658" width="37.073170731707314" height="18.536585365853657" fill="#07090C"/>
<rect x="352.1951219512195" y="333.6585365853658" width="37.073170731707314" height="18.536585365853657" fill="#07090C"/>
<rect x="407.80487804878044" y="333.6585365853658" width="55.609756097560975" height="18.536585365853657" fill="#07090C"/>
<rect x="481.9512195121951" y="333.6585365853658" width="18.536585365853657" height="18.536585365853657" fill="#07090C"/>
<rect x="519.0243902439024" y="333.6585365853658" width="37.073170731707314" height="18.536585365853657" fill="#07090C"/>
<rect x="574.6341463414634" y="333.6585365853658" width="37.073170731707314" height="18.536585365853657" fill="#07090C"/>
<rect x="648.780487804878" y="333.6585365853658" width="18.536585365853657" height="18.536585365853657" fill="#07090C"/>
<rect x="74.14634146341463" y="352.1951219512195" width="18.536585365853657" height="18.536585365853657" fill="#07090C"/>
<rect x="111.21951219512195" y="352.1951219512195" width="18.536585365853657" height="18.536585365853657" fill="#07090C"/>
<rect x="148.29268292682926" y="352.1951219512195" width="18.536585365853657" height="18.536585365853657" fill="#07090C"/>
<rect x="203.90243902439022" y="352.1951219512195" width="37.073170731707314" height="18.536585365853657" fill="#07090C"/>
<rect x="259.5121951219512" y="352.1951219512195" width="37.073170731707314" height="18.536585365853657" fill="#07090C"/>
<rect x="370.73170731707313" y="352.1951219512195" width="74.14634146341463" height="18.536585365853657" fill="#07090C"/>
<rect x="463.4146341463414" y="352.1951219512195" width="37.073170731707314" height="18.536585365853657" fill="#07090C"/>
<rect x="537.560975609756" y="352.1951219512195" width="18.536585365853657" height="18.536585365853657" fill="#07090C"/>
<rect x="593.170731707317" y="352.1951219512195" width="37.073170731707314" height="18.536585365853657" fill="#07090C"/>
<rect x="648.780487804878" y="352.1951219512195" width="18.536585365853657" height="18.536585365853657" fill="#07090C"/>
<rect x="74.14634146341463" y="370.73170731707313" width="18.536585365853657" height="18.536585365853657" fill="#07090C"/>
<rect x="111.21951219512195" y="370.73170731707313" width="18.536585365853657" height="18.536585365853657" fill="#07090C"/>
<rect x="166.8292682926829" y="370.73170731707313" width="55.609756097560975" height="18.536585365853657" fill="#07090C"/>
<rect x="278.04878048780483" y="370.73170731707313" width="18.536585365853657" height="18.536585365853657" fill="#07090C"/>
<rect x="315.1219512195122" y="370.73170731707313" width="18.536585365853657" height="18.536585365853657" fill="#07090C"/>
<rect x="370.73170731707313" y="370.73170731707313" width="18.536585365853657" height="18.536585365853657" fill="#07090C"/>
<rect x="407.80487804878044" y="370.73170731707313" width="37.073170731707314" height="18.536585365853657" fill="#07090C"/>
<rect x="537.560975609756" y="370.73170731707313" width="18.536585365853657" height="18.536585365853657" fill="#07090C"/>
<rect x="593.170731707317" y="370.73170731707313" width="18.536585365853657" height="18.536585365853657" fill="#07090C"/>
<rect x="630.2439024390244" y="370.73170731707313" width="18.536585365853657" height="18.536585365853657" fill="#07090C"/>
<rect x="667.3170731707316" y="370.73170731707313" width="18.536585365853657" height="18.536585365853657" fill="#07090C"/>
<rect x="74.14634146341463" y="389.2682926829268" width="37.073170731707314" height="18.536585365853657" fill="#07090C"/>
<rect x="148.29268292682926" y="389.2682926829268" width="37.073170731707314" height="18.536585365853657" fill="#07090C"/>
<rect x="203.90243902439022" y="389.2682926829268" width="18.536585365853657" height="18.536585365853657" fill="#07090C"/>
<rect x="259.5121951219512" y="389.2682926829268" width="55.609756097560975" height="18.536585365853657" fill="#07090C"/>
<rect x="333.6585365853658" y="389.2682926829268" width="18.536585365853657" height="18.536585365853657" fill="#07090C"/>
<rect x="389.2682926829268" y="389.2682926829268" width="18.536585365853657" height="18.536585365853657" fill="#07090C"/>
<rect x="426.3414634146341" y="389.2682926829268" width="37.073170731707314" height="18.536585365853657" fill="#07090C"/>
<rect x="500.48780487804873" y="389.2682926829268" width="37.073170731707314" height="18.536585365853657" fill="#07090C"/>
<rect x="556.0975609756097" y="389.2682926829268" width="18.536585365853657" height="18.536585365853657" fill="#07090C"/>
<rect x="74.14634146341463" y="407.80487804878044" width="55.609756097560975" height="18.536585365853657" fill="#07090C"/>
<rect x="166.8292682926829" y="407.80487804878044" width="74.14634146341463" height="18.536585365853657" fill="#07090C"/>
<rect x="296.5853658536585" y="407.80487804878044" width="129.7560975609756" height="18.536585365853657" fill="#07090C"/>
<rect x="481.9512195121951" y="407.80487804878044" width="18.536585365853657" height="18.536585365853657" fill="#07090C"/>
<rect x="574.6341463414634" y="407.80487804878044" width="18.536585365853657" height="18.536585365853657" fill="#07090C"/>
<rect x="630.2439024390244" y="407.80487804878044" width="18.536585365853657" height="18.536585365853657" fill="#07090C"/>
<rect x="74.14634146341463" y="426.3414634146341" width="18.536585365853657" height="18.536585365853657" fill="#07090C"/>
<rect x="129.7560975609756" y="426.3414634146341" width="37.073170731707314" height="18.536585365853657" fill="#07090C"/>
<rect x="203.90243902439022" y="426.3414634146341" width="18.536585365853657" height="18.536585365853657" fill="#07090C"/>
<rect x="259.5121951219512" y="426.3414634146341" width="18.536585365853657" height="18.536585365853657" fill="#07090C"/>
<rect x="296.5853658536585" y="426.3414634146341" width="18.536585365853657" height="18.536585365853657" fill="#07090C"/>
<rect x="333.6585365853658" y="426.3414634146341" width="18.536585365853657" height="18.536585365853657" fill="#07090C"/>
<rect x="370.73170731707313" y="426.3414634146341" width="18.536585365853657" height="18.536585365853657" fill="#07090C"/>
<rect x="426.3414634146341" y="426.3414634146341" width="18.536585365853657" height="18.536585365853657" fill="#07090C"/>
<rect x="463.4146341463414" y="426.3414634146341" width="18.536585365853657" height="18.536585365853657" fill="#07090C"/>
<rect x="500.48780487804873" y="426.3414634146341" width="55.609756097560975" height="18.536585365853657" fill="#07090C"/>
<rect x="574.6341463414634" y="426.3414634146341" width="74.14634146341463" height="18.536585365853657" fill="#07090C"/>
<rect x="92.68292682926828" y="444.8780487804878" width="18.536585365853657" height="18.536585365853657" fill="#07090C"/>
<rect x="185.36585365853657" y="444.8780487804878" width="18.536585365853657" height="18.536585365853657" fill="#07090C"/>
<rect x="222.4390243902439" y="444.8780487804878" width="18.536585365853657" height="18.536585365853657" fill="#07090C"/>
<rect x="315.1219512195122" y="444.8780487804878" width="18.536585365853657" height="18.536585365853657" fill="#07090C"/>
<rect x="352.1951219512195" y="444.8780487804878" width="37.073170731707314" height="18.536585365853657" fill="#07090C"/>
<rect x="444.8780487804878" y="444.8780487804878" width="18.536585365853657" height="18.536585365853657" fill="#07090C"/>
<rect x="481.9512195121951" y="444.8780487804878" width="18.536585365853657" height="18.536585365853657" fill="#07090C"/>
<rect x="519.0243902439024" y="444.8780487804878" width="18.536585365853657" height="18.536585365853657" fill="#07090C"/>
<rect x="574.6341463414634" y="444.8780487804878" width="55.609756097560975" height="18.536585365853657" fill="#07090C"/>
<rect x="74.14634146341463" y="463.4146341463414" width="55.609756097560975" height="18.536585365853657" fill="#07090C"/>
<rect x="148.29268292682926" y="463.4146341463414" width="18.536585365853657" height="18.536585365853657" fill="#07090C"/>
<rect x="203.90243902439022" y="463.4146341463414" width="18.536585365853657" height="18.536585365853657" fill="#07090C"/>
<rect x="240.97560975609755" y="463.4146341463414" width="18.536585365853657" height="18.536585365853657" fill="#07090C"/>
<rect x="278.04878048780483" y="463.4146341463414" width="37.073170731707314" height="18.536585365853657" fill="#07090C"/>
<rect x="333.6585365853658" y="463.4146341463414" width="37.073170731707314" height="18.536585365853657" fill="#07090C"/>
<rect x="389.2682926829268" y="463.4146341463414" width="74.14634146341463" height="18.536585365853657" fill="#07090C"/>
<rect x="537.560975609756" y="463.4146341463414" width="18.536585365853657" height="18.536585365853657" fill="#07090C"/>
<rect x="630.2439024390244" y="463.4146341463414" width="18.536585365853657" height="18.536585365853657" fill="#07090C"/>
<rect x="667.3170731707316" y="463.4146341463414" width="18.536585365853657" height="18.536585365853657" fill="#07090C"/>
<rect x="74.14634146341463" y="481.9512195121951" width="18.536585365853657" height="18.536585365853657" fill="#07090C"/>
<rect x="129.7560975609756" y="481.9512195121951" width="74.14634146341463" height="18.536585365853657" fill="#07090C"/>
<rect x="240.97560975609755" y="481.9512195121951" width="74.14634146341463" height="18.536585365853657" fill="#07090C"/>
<rect x="352.1951219512195" y="481.9512195121951" width="55.609756097560975" height="18.536585365853657" fill="#07090C"/>
<rect x="426.3414634146341" y="481.9512195121951" width="18.536585365853657" height="18.536585365853657" fill="#07090C"/>
<rect x="481.9512195121951" y="481.9512195121951" width="55.609756097560975" height="18.536585365853657" fill="#07090C"/>
<rect x="574.6341463414634" y="481.9512195121951" width="55.609756097560975" height="18.536585365853657" fill="#07090C"/>
<rect x="648.780487804878" y="481.9512195121951" width="18.536585365853657" height="18.536585365853657" fill="#07090C"/>
<rect x="74.14634146341463" y="500.48780487804873" width="18.536585365853657" height="18.536585365853657" fill="#07090C"/>
<rect x="166.8292682926829" y="500.48780487804873" width="18.536585365853657" height="18.536585365853657" fill="#07090C"/>
<rect x="222.4390243902439" y="500.48780487804873" width="18.536585365853657" height="18.536585365853657" fill="#07090C"/>
<rect x="259.5121951219512" y="500.48780487804873" width="37.073170731707314" height="18.536585365853657" fill="#07090C"/>
<rect x="315.1219512195122" y="500.48780487804873" width="37.073170731707314" height="18.536585365853657" fill="#07090C"/>
<rect x="370.73170731707313" y="500.48780487804873" width="55.609756097560975" height="18.536585365853657" fill="#07090C"/>
<rect x="444.8780487804878" y="500.48780487804873" width="74.14634146341463" height="18.536585365853657" fill="#07090C"/>
<rect x="593.170731707317" y="500.48780487804873" width="92.68292682926828" height="18.536585365853657" fill="#07090C"/>
<rect x="74.14634146341463" y="519.0243902439024" width="18.536585365853657" height="18.536585365853657" fill="#07090C"/>
<rect x="129.7560975609756" y="519.0243902439024" width="111.21951219512195" height="18.536585365853657" fill="#07090C"/>
<rect x="259.5121951219512" y="519.0243902439024" width="18.536585365853657" height="18.536585365853657" fill="#07090C"/>
<rect x="315.1219512195122" y="519.0243902439024" width="18.536585365853657" height="18.536585365853657" fill="#07090C"/>
<rect x="370.73170731707313" y="519.0243902439024" width="37.073170731707314" height="18.536585365853657" fill="#07090C"/>
<rect x="426.3414634146341" y="519.0243902439024" width="55.609756097560975" height="18.536585365853657" fill="#07090C"/>
<rect x="500.48780487804873" y="519.0243902439024" width="111.21951219512195" height="18.536585365853657" fill="#07090C"/>
<rect x="648.780487804878" y="519.0243902439024" width="18.536585365853657" height="18.536585365853657" fill="#07090C"/>
<rect x="222.4390243902439" y="537.560975609756" width="18.536585365853657" height="18.536585365853657" fill="#07090C"/>
<rect x="315.1219512195122" y="537.560975609756" width="37.073170731707314" height="18.536585365853657" fill="#07090C"/>
<rect x="370.73170731707313" y="537.560975609756" width="37.073170731707314" height="18.536585365853657" fill="#07090C"/>
<rect x="426.3414634146341" y="537.560975609756" width="18.536585365853657" height="18.536585365853657" fill="#07090C"/>
<rect x="463.4146341463414" y="537.560975609756" width="18.536585365853657" height="18.536585365853657" fill="#07090C"/>
<rect x="519.0243902439024" y="537.560975609756" width="18.536585365853657" height="18.536585365853657" fill="#07090C"/>
<rect x="593.170731707317" y="537.560975609756" width="55.609756097560975" height="18.536585365853657" fill="#07090C"/>
<rect x="667.3170731707316" y="537.560975609756" width="18.536585365853657" height="18.536585365853657" fill="#07090C"/>
<rect x="74.14634146341463" y="556.0975609756097" width="129.7560975609756" height="18.536585365853657" fill="#07090C"/>
<rect x="240.97560975609755" y="556.0975609756097" width="37.073170731707314" height="18.536585365853657" fill="#07090C"/>
<rect x="296.5853658536585" y="556.0975609756097" width="18.536585365853657" height="18.536585365853657" fill="#07090C"/>
<rect x="370.73170731707313" y="556.0975609756097" width="111.21951219512195" height="18.536585365853657" fill="#07090C"/>
<rect x="500.48780487804873" y="556.0975609756097" width="37.073170731707314" height="18.536585365853657" fill="#07090C"/>
<rect x="556.0975609756097" y="556.0975609756097" width="18.536585365853657" height="18.536585365853657" fill="#07090C"/>
<rect x="593.170731707317" y="556.0975609756097" width="18.536585365853657" height="18.536585365853657" fill="#07090C"/>
<rect x="630.2439024390244" y="556.0975609756097" width="37.073170731707314" height="18.536585365853657" fill="#07090C"/>
<rect x="74.14634146341463" y="574.6341463414634" width="18.536585365853657" height="18.536585365853657" fill="#07090C"/>
<rect x="185.36585365853657" y="574.6341463414634" width="18.536585365853657" height="18.536585365853657" fill="#07090C"/>
<rect x="259.5121951219512" y="574.6341463414634" width="18.536585365853657" height="18.536585365853657" fill="#07090C"/>
<rect x="296.5853658536585" y="574.6341463414634" width="18.536585365853657" height="18.536585365853657" fill="#07090C"/>
<rect x="370.73170731707313" y="574.6341463414634" width="37.073170731707314" height="18.536585365853657" fill="#07090C"/>
<rect x="426.3414634146341" y="574.6341463414634" width="18.536585365853657" height="18.536585365853657" fill="#07090C"/>
<rect x="463.4146341463414" y="574.6341463414634" width="37.073170731707314" height="18.536585365853657" fill="#07090C"/>
<rect x="519.0243902439024" y="574.6341463414634" width="18.536585365853657" height="18.536585365853657" fill="#07090C"/>
<rect x="593.170731707317" y="574.6341463414634" width="92.68292682926828" height="18.536585365853657" fill="#07090C"/>
<rect x="74.14634146341463" y="593.170731707317" width="18.536585365853657" height="18.536585365853657" fill="#07090C"/>
<rect x="111.21951219512195" y="593.170731707317" width="55.609756097560975" height="18.536585365853657" fill="#07090C"/>
<rect x="185.36585365853657" y="593.170731707317" width="18.536585365853657" height="18.536585365853657" fill="#07090C"/>
<rect x="222.4390243902439" y="593.170731707317" width="18.536585365853657" height="18.536585365853657" fill="#07090C"/>
<rect x="259.5121951219512" y="593.170731707317" width="37.073170731707314" height="18.536585365853657" fill="#07090C"/>
<rect x="333.6585365853658" y="593.170731707317" width="18.536585365853657" height="18.536585365853657" fill="#07090C"/>
<rect x="370.73170731707313" y="593.170731707317" width="55.609756097560975" height="18.536585365853657" fill="#07090C"/>
<rect x="444.8780487804878" y="593.170731707317" width="37.073170731707314" height="18.536585365853657" fill="#07090C"/>
<rect x="519.0243902439024" y="593.170731707317" width="92.68292682926828" height="18.536585365853657" fill="#07090C"/>
<rect x="648.780487804878" y="593.170731707317" width="37.073170731707314" height="18.536585365853657" fill="#07090C"/>
<rect x="74.14634146341463" y="611.7073170731707" width="18.536585365853657" height="18.536585365853657" fill="#07090C"/>
<rect x="111.21951219512195" y="611.7073170731707" width="55.609756097560975" height="18.536585365853657" fill="#07090C"/>
<rect x="185.36585365853657" y="611.7073170731707" width="18.536585365853657" height="18.536585365853657" fill="#07090C"/>
<rect x="222.4390243902439" y="611.7073170731707" width="18.536585365853657" height="18.536585365853657" fill="#07090C"/>
<rect x="259.5121951219512" y="611.7073170731707" width="55.609756097560975" height="18.536585365853657" fill="#07090C"/>
<rect x="333.6585365853658" y="611.7073170731707" width="18.536585365853657" height="18.536585365853657" fill="#07090C"/>
<rect x="370.73170731707313" y="611.7073170731707" width="74.14634146341463" height="18.536585365853657" fill="#07090C"/>
<rect x="481.9512195121951" y="611.7073170731707" width="18.536585365853657" height="18.536585365853657" fill="#07090C"/>
<rect x="537.560975609756" y="611.7073170731707" width="18.536585365853657" height="18.536585365853657" fill="#07090C"/>
<rect x="593.170731707317" y="611.7073170731707" width="18.536585365853657" height="18.536585365853657" fill="#07090C"/>
<rect x="630.2439024390244" y="611.7073170731707" width="37.073170731707314" height="18.536585365853657" fill="#07090C"/>
<rect x="74.14634146341463" y="630.2439024390244" width="18.536585365853657" height="18.536585365853657" fill="#07090C"/>
<rect x="111.21951219512195" y="630.2439024390244" width="55.609756097560975" height="18.536585365853657" fill="#07090C"/>
<rect x="185.36585365853657" y="630.2439024390244" width="18.536585365853657" height="18.536585365853657" fill="#07090C"/>
<rect x="222.4390243902439" y="630.2439024390244" width="37.073170731707314" height="18.536585365853657" fill="#07090C"/>
<rect x="278.04878048780483" y="630.2439024390244" width="37.073170731707314" height="18.536585365853657" fill="#07090C"/>
<rect x="333.6585365853658" y="630.2439024390244" width="37.073170731707314" height="18.536585365853657" fill="#07090C"/>
<rect x="389.2682926829268" y="630.2439024390244" width="18.536585365853657" height="18.536585365853657" fill="#07090C"/>
<rect x="426.3414634146341" y="630.2439024390244" width="18.536585365853657" height="18.536585365853657" fill="#07090C"/>
<rect x="463.4146341463414" y="630.2439024390244" width="37.073170731707314" height="18.536585365853657" fill="#07090C"/>
<rect x="519.0243902439024" y="630.2439024390244" width="55.609756097560975" height="18.536585365853657" fill="#07090C"/>
<rect x="611.7073170731707" y="630.2439024390244" width="37.073170731707314" height="18.536585365853657" fill="#07090C"/>
<rect x="74.14634146341463" y="648.780487804878" width="18.536585365853657" height="18.536585365853657" fill="#07090C"/>
<rect x="185.36585365853657" y="648.780487804878" width="18.536585365853657" height="18.536585365853657" fill="#07090C"/>
<rect x="278.04878048780483" y="648.780487804878" width="74.14634146341463" height="18.536585365853657" fill="#07090C"/>
<rect x="370.73170731707313" y="648.780487804878" width="18.536585365853657" height="18.536585365853657" fill="#07090C"/>
<rect x="444.8780487804878" y="648.780487804878" width="37.073170731707314" height="18.536585365853657" fill="#07090C"/>
<rect x="537.560975609756" y="648.780487804878" width="18.536585365853657" height="18.536585365853657" fill="#07090C"/>
<rect x="574.6341463414634" y="648.780487804878" width="18.536585365853657" height="18.536585365853657" fill="#07090C"/>
<rect x="630.2439024390244" y="648.780487804878" width="18.536585365853657" height="18.536585365853657" fill="#07090C"/>
<rect x="74.14634146341463" y="667.3170731707316" width="129.7560975609756" height="18.536585365853657" fill="#07090C"/>
<rect x="259.5121951219512" y="667.3170731707316" width="18.536585365853657" height="18.536585365853657" fill="#07090C"/>
<rect x="296.5853658536585" y="667.3170731707316" width="18.536585365853657" height="18.536585365853657" fill="#07090C"/>
<rect x="389.2682926829268" y="667.3170731707316" width="92.68292682926828" height="18.536585365853657" fill="#07090C"/>
<rect x="500.48780487804873" y="667.3170731707316" width="37.073170731707314" height="18.536585365853657" fill="#07090C"/>
<rect x="611.7073170731707" y="667.3170731707316" width="55.609756097560975" height="18.536585365853657" fill="#07090C"/>
  </g>

  <!-- footer -->
  <rect x="120.0" y="1084" width="760" height="1" fill="#2A343F"/>
  <text class="mono" x="120.0" y="1132" font-size="27" letter-spacing="3.4" fill="#E9EDF2">BSNIDDY.GITHUB.IO</text>
  <text class="mono" x="880.0" y="1132" font-size="19" letter-spacing="2.6"
        fill="#6E7A87" text-anchor="end">CS · MACHINE INTELLIGENCE</text>
</svg>
